<?xml version="1.0" encoding="utf-8"?>
<svg width="220.875" height="29.562" viewBox="0 0 220.875 29.562" xmlns="http://www.w3.org/2000/svg">
  <defs>
    <style id="bx-google-fonts">@import url(https://fonts.googleapis.com/css?family=ABeeZee:400,400italic);</style>
  </defs>
  <g style="fill: rgb(60, 173, 178);"/>
  <text x="62.216" y="21.381" transform="matrix(1.309423, -0.000388, 0, 1, -53.278084, 2.942765)" style="fill: rgb(63, 135, 189); font-family: ABeeZee; font-size: 25px; font-weight: bold; white-space: pre;">강서구철거</text>
  <rect x="22.557" y="7.601" width="3.446" height="4.021" style="fill: rgb(63, 134, 189);"/>
  <rect x="17.1" y="16.505" width="3.733" height="4.308" style="fill: rgb(63, 134, 189);"/>
  <rect transform="matrix(1.000001, 0, 0, 1.000001, -4.151844, -51.84749)" x="28.432" y="75.818" width="2.01" height="2.585" style="fill: rgb(63, 134, 189);"/>
  <rect transform="matrix(1, 0, 0, 0.999999, -4.151824, -51.847309)" x="19.242" y="61.459" width="2.298" height="2.585" style="fill: rgb(63, 134, 189);"/>
  <rect x="194.585" y="7.888" width="4.882" height="6.605" style="fill: rgb(63, 134, 189);"/>
  <rect x="204.923" y="18.227" width="3.733" height="5.169" style="fill: rgb(63, 134, 189);"/>
  <rect transform="matrix(1, 0, 0, 1.000001, -4.15181, -51.84748)" x="204.193" y="76.68" width="2.585" height="2.872" style="fill: rgb(63, 134, 189);"/>
  <rect transform="matrix(0.999996, 0, 0, 1, -4.150927, -51.847389)" x="215.968" y="58.013" width="3.733" height="5.169" style="fill: rgb(63, 134, 189);"/>
  <rect x="-6.761" y="-6.668" width="3.949" height="3.59" style="fill: rgb(63, 134, 189);" transform="matrix(0, -1, -1, 0, 3.862493, 3.676505)"/>
  <rect transform="matrix(1.000001, 0, 0, 1, -37.753211, -77.335604)" x="46.31" y="95.132" width="3.59" height="6.103" style="fill: rgb(63, 134, 189);"/>
</svg>